<?xml version="1.0" encoding="UTF-8" standalone="no"?>
<!DOCTYPE svg PUBLIC "-//W3C//DTD SVG 1.1//EN"
 "http://www.w3.org/Graphics/SVG/1.1/DTD/svg11.dtd">
<!-- Generated by graphviz version 2.40.1 (20161225.0304)
 -->
<!-- Title: dependencies Pages: 1 -->
<svg width="1166pt" height="211pt"
 viewBox="0.00 0.00 1166.00 211.00" xmlns="http://www.w3.org/2000/svg" xmlns:xlink="http://www.w3.org/1999/xlink">
<g id="graph0" class="graph" transform="scale(1 1) rotate(0) translate(4 207)">
<title>dependencies</title>
<polygon fill="#ffffff" stroke="transparent" points="-4,4 -4,-207 1162,-207 1162,4 -4,4"/>
<text text-anchor="start" x="558.0091" y="-42.4" font-family="sans-serif" font-weight="bold" font-size="14.00" fill="#000000">Legend</text>
<polygon fill="#ffffb3" stroke="transparent" points="345,-10 345,-30 365,-30 365,-10 345,-10"/>
<text text-anchor="start" x="368.629" y="-15.4" font-family="sans-serif" font-size="14.00" fill="#000000"> &#160;Declarations</text>
<polygon fill="#8dd3c7" stroke="transparent" points="458,-10 458,-30 478,-30 478,-10 458,-10"/>
<text text-anchor="start" x="481.7251" y="-15.4" font-family="sans-serif" font-size="14.00" fill="#000000"> &#160;Module</text>
<polygon fill="#80b1d3" stroke="transparent" points="544,-10 544,-30 564,-30 564,-10 544,-10"/>
<text text-anchor="start" x="567.7812" y="-15.4" font-family="sans-serif" font-size="14.00" fill="#000000"> &#160;Bootstrap</text>
<polygon fill="#fdb462" stroke="transparent" points="641,-10 641,-30 661,-30 661,-10 641,-10"/>
<text text-anchor="start" x="664.6732" y="-15.4" font-family="sans-serif" font-size="14.00" fill="#000000"> &#160;Providers</text>
<polygon fill="#fb8072" stroke="transparent" points="737,-10 737,-30 757,-30 757,-10 737,-10"/>
<text text-anchor="start" x="760.7258" y="-15.4" font-family="sans-serif" font-size="14.00" fill="#000000"> &#160;Exports</text>
<g id="clust1" class="cluster">
<title>cluster_PrestationModule</title>
<polygon fill="none" stroke="#000000" stroke-dasharray="1,5" points="8,-70 8,-195 1150,-195 1150,-70 8,-70"/>
</g>
<g id="clust2" class="cluster">
<title>cluster_PrestationModule_declarations</title>
<polygon fill="none" stroke="#000000" points="317,-78 317,-130 1142,-130 1142,-78 317,-78"/>
</g>
<g id="clust8" class="cluster">
<title>cluster_PrestationModule_imports</title>
<polygon fill="none" stroke="#000000" points="16,-78 16,-130 309,-130 309,-78 16,-78"/>
</g>
<!-- AddPrestationComponent -->
<g id="node1" class="node">
<title>AddPrestationComponent</title>
<polygon fill="#ffffb3" stroke="#000000" points="1133.9284,-122 972.0716,-122 972.0716,-86 1133.9284,-86 1133.9284,-122"/>
<text text-anchor="middle" x="1053" y="-99.8" font-family="Times,serif" font-size="14.00" fill="#000000">AddPrestationComponent</text>
</g>
<!-- PrestationModule -->
<g id="node6" class="node">
<title>PrestationModule</title>
<polygon fill="#8dd3c7" stroke="#000000" points="620.5395,-187 617.5395,-191 596.5395,-191 593.5395,-187 505.4605,-187 505.4605,-151 620.5395,-151 620.5395,-187"/>
<text text-anchor="middle" x="563" y="-164.8" font-family="Times,serif" font-size="14.00" fill="#000000">PrestationModule</text>
</g>
<!-- AddPrestationComponent&#45;&gt;PrestationModule -->
<g id="edge1" class="edge">
<title>AddPrestationComponent&#45;&gt;PrestationModule</title>
<path fill="none" stroke="#000000" d="M1053,-122.2921C1053,-144.2057 1053,-178 1053,-178 1053,-178 630.6501,-178 630.6501,-178"/>
<polygon fill="#000000" stroke="#000000" points="630.6502,-174.5001 620.6501,-178 630.6501,-181.5001 630.6502,-174.5001"/>
</g>
<!-- FormComponent -->
<g id="node2" class="node">
<title>FormComponent</title>
<polygon fill="#ffffb3" stroke="#000000" points="953.6667,-122 842.3333,-122 842.3333,-86 953.6667,-86 953.6667,-122"/>
<text text-anchor="middle" x="898" y="-99.8" font-family="Times,serif" font-size="14.00" fill="#000000">FormComponent</text>
</g>
<!-- FormComponent&#45;&gt;PrestationModule -->
<g id="edge2" class="edge">
<title>FormComponent&#45;&gt;PrestationModule</title>
<path fill="none" stroke="#000000" d="M898,-122.1061C898,-141.3391 898,-169 898,-169 898,-169 630.5886,-169 630.5886,-169"/>
<polygon fill="#000000" stroke="#000000" points="630.5886,-165.5001 620.5886,-169 630.5885,-172.5001 630.5886,-165.5001"/>
</g>
<!-- FormReactiveComponent -->
<g id="node3" class="node">
<title>FormReactiveComponent</title>
<polygon fill="#ffffb3" stroke="#000000" points="824.1428,-122 663.8572,-122 663.8572,-86 824.1428,-86 824.1428,-122"/>
<text text-anchor="middle" x="744" y="-99.8" font-family="Times,serif" font-size="14.00" fill="#000000">FormReactiveComponent</text>
</g>
<!-- FormReactiveComponent&#45;&gt;PrestationModule -->
<g id="edge3" class="edge">
<title>FormReactiveComponent&#45;&gt;PrestationModule</title>
<path fill="none" stroke="#000000" d="M744,-122.027C744,-138.3976 744,-160 744,-160 744,-160 630.7672,-160 630.7672,-160"/>
<polygon fill="#000000" stroke="#000000" points="630.7672,-156.5001 620.7672,-160 630.7671,-163.5001 630.7672,-156.5001"/>
</g>
<!-- ListPrestationsComponent -->
<g id="node4" class="node">
<title>ListPrestationsComponent</title>
<polygon fill="#ffffb3" stroke="#000000" points="645.0448,-122 480.9552,-122 480.9552,-86 645.0448,-86 645.0448,-122"/>
<text text-anchor="middle" x="563" y="-99.8" font-family="Times,serif" font-size="14.00" fill="#000000">ListPrestationsComponent</text>
</g>
<!-- ListPrestationsComponent&#45;&gt;PrestationModule -->
<g id="edge4" class="edge">
<title>ListPrestationsComponent&#45;&gt;PrestationModule</title>
<path fill="none" stroke="#000000" d="M563,-122.1061C563,-122.1061 563,-140.991 563,-140.991"/>
<polygon fill="#000000" stroke="#000000" points="559.5001,-140.9909 563,-150.991 566.5001,-140.991 559.5001,-140.9909"/>
</g>
<!-- PrestationComponent -->
<g id="node5" class="node">
<title>PrestationComponent</title>
<polygon fill="#ffffb3" stroke="#000000" points="462.8216,-122 325.1784,-122 325.1784,-86 462.8216,-86 462.8216,-122"/>
<text text-anchor="middle" x="394" y="-99.8" font-family="Times,serif" font-size="14.00" fill="#000000">PrestationComponent</text>
</g>
<!-- PrestationComponent&#45;&gt;PrestationModule -->
<g id="edge5" class="edge">
<title>PrestationComponent&#45;&gt;PrestationModule</title>
<path fill="none" stroke="#000000" d="M394,-122.027C394,-138.3976 394,-160 394,-160 394,-160 495.3125,-160 495.3125,-160"/>
<polygon fill="#000000" stroke="#000000" points="495.3125,-163.5001 505.3125,-160 495.3124,-156.5001 495.3125,-163.5001"/>
</g>
<!-- PrestationRoutingModule -->
<g id="node7" class="node">
<title>PrestationRoutingModule</title>
<polygon fill="#8dd3c7" stroke="#000000" points="301.1568,-122 298.1568,-126 277.1568,-126 274.1568,-122 140.8432,-122 140.8432,-86 301.1568,-86 301.1568,-122"/>
<text text-anchor="middle" x="221" y="-99.8" font-family="Times,serif" font-size="14.00" fill="#000000">PrestationRoutingModule</text>
</g>
<!-- PrestationRoutingModule&#45;&gt;PrestationModule -->
<g id="edge6" class="edge">
<title>PrestationRoutingModule&#45;&gt;PrestationModule</title>
<path fill="none" stroke="#000000" d="M221,-122.1061C221,-141.3391 221,-169 221,-169 221,-169 495.3711,-169 495.3711,-169"/>
<polygon fill="#000000" stroke="#000000" points="495.3711,-172.5001 505.3711,-169 495.3711,-165.5001 495.3711,-172.5001"/>
</g>
<!-- SharedModule -->
<g id="node8" class="node">
<title>SharedModule</title>
<polygon fill="#8dd3c7" stroke="#000000" points="122.4231,-122 119.4231,-126 98.4231,-126 95.4231,-122 23.5769,-122 23.5769,-86 122.4231,-86 122.4231,-122"/>
<text text-anchor="middle" x="73" y="-99.8" font-family="Times,serif" font-size="14.00" fill="#000000">SharedModule</text>
</g>
<!-- SharedModule&#45;&gt;PrestationModule -->
<g id="edge7" class="edge">
<title>SharedModule&#45;&gt;PrestationModule</title>
<path fill="none" stroke="#000000" d="M73,-122.2921C73,-144.2057 73,-178 73,-178 73,-178 495.3499,-178 495.3499,-178"/>
<polygon fill="#000000" stroke="#000000" points="495.3499,-181.5001 505.3499,-178 495.3498,-174.5001 495.3499,-181.5001"/>
</g>
</g>
</svg>
